<svg class="hs_augsburg_logo" xmlns="http://www.w3.org/2000/svg" x="0px" y="0px" viewBox="0 0 875.7 388.4">
	<!-- Mouths: -->
	<path d="M187.9,300.6h-112v24.1h112V300.6z M187.9,346.7h-112v24.2h112V346.7z M453.6,364.2 c-24.2,0-41.7-11-41.7-43.9h41.7h41.7C495.3,353.3,477.7,364.2,453.6,364.2z M453.6,388.4c39.5,0,70.3-19.8,70.3-74.6v-17.6h-70.3 h-70.3v17.6C383.3,368.6,414,388.4,453.6,388.4z M736.8,357.6c26.3,0,46.1-6.6,61.5-15.4v-28.5c-17.6,8.8-39.5,15.4-61.5,15.4 c-22,0-43.9-6.6-61.5-15.4v28.5C690.7,351.1,710.4,357.6,736.8,357.6z"/>

	<!-- 1st eye: --><circle cx="24.3" cy="25" r="24.3"/>
	<!-- 2nd eye: --><circle cx="301" cy="25" r="24.3"/>
	<!-- 3rd eye: --><circle cx="575.4" cy="25" r="24.3"/>
	<!-- 4th eye: --><circle cx="852" cy="25" r="24.3"/>

	<!-- 1st nose: -->
	<polygon points="125.5,255.8 125.5,231.2 189.1,189.5 189.1,189.1 126.1,149 126.1,129.1 189.1,89.1 189.1,88.7 125.5,47.3 125.5,25 209,80 209,100.7 147,140.2 147,140.5 209,180.3 209,201 "/>
	<!-- 2nd nose: -->
	<polygon points="471.8,255.8 471.8,231.2 408.1,189.5 408.1,189.1 471.1,149 471.1,129.1 408.1,89.1 408.1,88.7 471.8,47.3 471.8,25 388.2,80 388.2,100.7 450.2,140.2 450.2,140.5 388.2,180.3 388.2,201 "/>
	<!-- 3rd nose: -->
	<polygon points="736.8,255.8 736.8,231.2 673.1,189.5 673.1,189.1 736.1,149 736.1,129.1 673.1,89.1 673.1,88.7 736.8,47.3 736.8,25 653.2,80 653.2,100.7 715.2,140.2 715.2,140.5 653.2,180.3 653.2,201 "/>
</svg>
