<svg xmlns="http://www.w3.org/2000/svg" x="0px" y="0px" viewBox="0 0 422.5 406.4">
<polygon id="XMLID_617_" class="st0" points="208.8,32.4 193.5,41.3 144.5,16.6 144.3,16.7 142,70.5 129.5,77.7 81.9,52.8
	81.6,52.9 78.7,107.5 64.8,115.5 69,43.6 82,36.1 128.9,60.5 129.1,60.5 131.6,7.5 144.5,0 "/>
<polygon id="XMLID_616_" class="st0" points="213.8,373.6 229.2,364.8 278.1,389.4 278.4,389.3 280.7,335.5 293.2,328.4
	340.8,353.3 341.1,353.1 344,298.5 357.9,290.5 353.6,362.4 340.7,369.9 293.8,345.5 293.6,345.6 291.1,398.6 278.2,406 "/>
<polygon id="XMLID_615_" class="st0" points="62.6,119.8 62.6,137.6 16.8,167.6 16.8,167.9 62.2,196.8 62.2,211.2 16.8,240
	16.8,240.3 62.6,270.1 62.6,286.1 2.4,246.5 2.4,231.6 47.1,203.1 47.1,202.9 2.4,174.3 2.4,159.4 "/>
<polygon id="XMLID_614_" class="st0" points="64.8,290.5 80.1,299.3 83.2,354.1 83.5,354.2 131.2,329.3 143.6,336.5 145.9,390.3
	146.1,390.4 194.9,365.6 208.8,373.6 144.3,405.9 131.4,398.5 129.1,345.6 129,345.5 81.8,369.8 68.9,362.4 "/>
<polygon id="XMLID_613_" class="st0" points="360,286.5 360,268.7 405.9,238.7 405.9,238.4 360.5,209.5 360.5,195.2 405.9,166.3
	405.9,166.1 360,136.2 360,120.2 420.2,159.8 420.2,174.7 375.6,203.2 375.6,203.4 420.2,232 420.2,247 "/>
<polygon id="XMLID_612_" class="st0" points="357.9,116.2 342.5,107.3 339.4,52.6 339.2,52.5 291.5,77.3 279,70.1 276.7,16.4
	276.5,16.3 227.7,41.1 213.9,33.1 278.3,0.7 291.2,8.2 293.5,61.1 293.7,61.2 340.8,36.8 353.8,44.3 "/>
<polygon id="XMLID_611_" class="st0" points="129.6,222.2 147.3,222.2 177.4,268 177.6,268 206.5,222.6 220.9,222.6 249.7,268
	250,268 279.9,222.2 295.9,222.2 256.2,282.4 241.3,282.4 212.9,237.7 212.7,237.7 184,282.4 169.1,282.4 "/>
<path id="XMLID_610_" class="st1" d="M168.3,172.6c0,11.1-9,20.1-20.1,20.1s-20.1-9-20.1-20.1s9-20.1,20.1-20.1
	S168.3,161.5,168.3,172.6"/>
<path id="XMLID_609_" class="st1" d="M294.5,172.6c0,11.1-9,20.1-20.1,20.1c-11.1,0-20.1-9-20.1-20.1s9-20.1,20.1-20.1
	C285.5,152.5,294.5,161.5,294.5,172.6"/>
</svg>
