<svg class="icon" xmlns="http://www.w3.org/2000/svg" viewBox="0 0 250.02 372.19"><path class="speaker" d="M250.36,170.9l-.07-.08L187.42,86V.82H63.76V86.06L1,170.82l-.06.08v44.8H250.36ZM96,118l12.65-17.07V45.71h33.89V55l.07.06-.07.09v45.66L155.27,118l39.17,52.87H56.83Z"/><path class="soundwave--small" d="M128.8,372.93c-100.13,0-147.11-88.71-149.07-92.48l4.2-2.17L21.6,262.49a154,154,0,0,0,26.49,32.19c23.69,21.89,50.85,33,80.71,33,66.32,0,95.54-56.32,99.72-65.18L270.28,280a169.79,169.79,0,0,1-31.8,45.9C208.79,356.67,170.88,372.93,128.8,372.93Z"/><path class="soundwave--big" d="M202.83,251.71,158.27,233a47.14,47.14,0,0,1-61-2.27L53.49,249.11a92.43,92.43,0,0,0,149.34,2.6Z"/></svg>
