<svg class="icon" xmlns="http://www.w3.org/2000/svg" x="0px" y="0px" viewBox="0 0 320.2 250"><path class="speaker" d="M146.4,17.2L146.4,17.2L73.3,71.3H0v106.4h73.4l72.9,54h0.1h38.6V17.2H146.4z M100.8,150l-14.7-10.9H38.7v-29.2h7.9l0,0h0.1 h39.3l14.7-11l45.5-33.7v118.5L100.8,150z"/><path class="soundwave--small" d="M215.9,58l-16.1,38.3c5.5,6.9,8.7,15.6,8.7,25.1c0,10.5-4,20.1-10.6,27.4l15.8,37.7c20.5-14.5,33.8-38.2,33.8-65.1 C247.4,95.5,235,72.6,215.9,58z"/><path class="soundwave--big" d="M320.2,121.7c0,86.2-76.3,126.5-79.5,128.3l-1.9-3.6L225.2,214c4.9-2.9,16.4-10.6,27.7-22.8c18.8-20.4,28.4-43.8,28.4-69.4 c0-57.1-48.4-82.2-56.1-85.8l15.1-36c4.6,2,22,10.5,39.4,27.4C306.2,52.9,320.2,85.6,320.2,121.7z"/></svg>
