<svg class="icon" xmlns="http://www.w3.org/2000/svg" x="0px" y="0px" viewBox="0 0 250 320.2"><path class="speaker" d="M232.8,146.4L232.8,146.4l-54.1-73.1V0H72.3v73.4l-54,72.9v0.1V185h214.5V146.4z M100,100.8l10.9-14.7V38.7h29.2v7.9l0,0 v0.1V86l11,14.7l33.7,45.5H66.3L100,100.8z"/><path class="soundwave--small" d="M192,215.9l-38.3-16.1c-6.9,5.5-15.6,8.7-25.1,8.7c-10.5,0-20.1-4-27.4-10.6l-37.7,15.8c14.5,20.5,38.2,33.8,65.1,33.8 C154.5,247.4,177.4,235,192,215.9z"/><path class="soundwave--big" d="M128.3,320.2C42.1,320.2,1.8,243.9,0,240.7l3.6-1.9L36,225.2c2.9,4.9,10.6,16.4,22.8,27.7c20.4,18.8,43.8,28.4,69.4,28.4 c57.1,0,82.2-48.4,85.8-56.1l36,15.1c-2,4.6-10.5,22-27.4,39.4C197.1,306.2,164.4,320.2,128.3,320.2z"/></svg>
