<svg class="strichpunkt_logo" xmlns="http://www.w3.org/2000/svg" x="0px" y="0px" viewBox="0 0 283.5 27.5">
	<polygon points="266.4,0.4 266.4,4.9 272.4,4.9 272.4,27.1 277.5,27.1 277.5,4.9 283.5,4.9 283.5,0.4 "/>
	<polygon points="246.2,27.1 246.2,18.9 248.2,15.9 253.5,27.1 259.3,27.1 251.6,11.2 258.5,0.4 252.9,0.4 246.3,11.4 246.2,11.4 246.2,0.4 241.1,0.4 241.1,27.1 "/>
	<polygon points="216,27.1 216,9.9 216.1,9.9 223.9,27.1 228.8,27.1 228.8,0.4 224.1,0.4 224.1,16.2 224,16.2 216.9,0.4 211.3,0.4 211.3,27.1 "/>
	<path d="M182,0.4v18.8c0,5.9,3.4,8.4,8.7,8.4c5.3,0,8.8-2.5,8.8-8.4V0.4h-5.1v18.7c0,2.6-1.1,3.9-3.6,3.9c-2.5,0-3.6-1.3-3.6-3.9 V0.4H182z"/>
	<path d="M163.2,0.4h-7.4v26.8h5.1V16.4h2.3c6.3,0,9.4-3,9.4-8C172.6,3.3,169.5,0.4,163.2,0.4z M163.7,12.2H161V4.6h2.7 c2.5,0,3.8,1.3,3.8,3.8C167.5,10.9,166.2,12.2,163.7,12.2z"/>
	<polygon points="131.3,27.1 131.3,15.6 138.5,15.6 138.5,27.1 143.6,27.1 143.6,0.4 138.5,0.4 138.5,11 131.3,11 131.3,0.4 126.2,0.4 126.2,27.1 "/>
	<path d="M102.5,8.3c0-3,1.3-3.8,3.3-3.8c2,0,3.3,0.8,3.3,3.8V9h5.1V9c0-6.6-3.5-9-8.5-9c-5,0-8.5,2.4-8.5,9v9.6c0,6.6,3.5,9,8.5,9 c5,0,8.5-2.4,8.5-9v-1.1h-5.1v1.8c0,3-1.3,3.8-3.3,3.8c-2,0-3.3-0.8-3.3-3.8V8.3z"/>
	<polygon points="85.4,27.1 85.4,7.4 85.4,0.4 80.3,0.4 80.3,27.1 "/>
	<path d="M64.2,15.2c2.9-1.1,4-3.5,4-6.8c0-5-2.9-8-9.1-8h-7.4v26.8h5.1V16.2h2.4l4.5,10.9h5.5L64.2,15.2z M59.5,12h-2.6V4.6h2.6 c2.3,0,3.6,1.1,3.6,3.7C63.2,10.9,61.8,12,59.5,12z"/>
	<polygon points="24.8,0.4 24.8,4.9 30.8,4.9 30.8,27.1 35.9,27.1 35.9,4.9 41.9,4.9 41.9,0.4 "/>
	<path d="M17,6.5C16.1,2.7,13.4,0,8.8,0c-5.3,0-8,2.9-8,7.5c0,7.5,11.4,7.6,11.4,12.6c0,2-1.4,3.2-3.2,3.2c-1.5,0-3.4-1.1-4-4.4L0,20 c1.4,5.3,4.6,7.5,8.8,7.5c5.4,0,8.5-3,8.5-7.6c0-8.4-11.4-8.7-11.4-12.7c0-1.8,1-2.9,2.8-2.9c1.8,0,2.9,1.1,3.7,3.6L17,6.5z"/>
</svg>
